<svg width="130" height="65" xmlns="http://www.w3.org/2000/svg">

 <g>
  <title>Layer 1</title>
  <path id="svg_1" fill-rule="evenodd" d="m34.858,30.387c-0.437,-0.593 -1.18,-1.077 -2.08,-1.077c-1.666,0 -2.868,1.272 -2.868,2.994s1.202,2.994 2.868,2.994c0.778,0 1.506,-0.332 1.887,-0.663c0.026,-0.022 0.04,-0.054 0.04,-0.088l0,-0.934c0,-0.058 -0.047,-0.106 -0.106,-0.106l-2.143,0c-0.085,0 -0.154,-0.07 -0.154,-0.154l0,-1.387c0,-0.085 0.07,-0.155 0.154,-0.155l3.842,0l0,-2.058l-1.24,0.68c-0.066,0.036 -0.154,0.014 -0.198,-0.046l-0.002,0zm-18.037,0.974l2.3,0c0.655,0 1.065,-0.37 1.065,-0.957c0,-0.56 -0.4,-0.957 -1.065,-0.957l-2.3,0a0.14,0.14 0 0 0 -0.142,0.142l0,1.63a0.14,0.14 0 0 0 0.142,0.142zm9.305,5.37c0,0.07 -0.057,0.127 -0.127,0.127l-1.685,0c-0.07,0 -0.127,-0.057 -0.127,-0.127l0,-8.865c0,-0.07 0.057,-0.127 0.127,-0.127l1.686,0c0.07,0 0.127,0.057 0.127,0.127l-0.001,8.865zm9.687,-21.226l-16.713,12.232l0.43,0c1.734,0 2.622,1.107 2.622,2.324c0,0.947 -0.494,1.646 -1.157,1.955c-0.1,0.052 -0.106,0.208 0.006,0.254c0.773,0.317 1.33,1.145 1.33,2.112c0,1.38 -0.9,2.475 -2.65,2.475l-4.801,0a0.14,0.14 0 0 1 -0.142,-0.142l0,-5.785l-12.395,9.075c-0.237,0.174 -0.115,0.55 0.18,0.55l33.47,0c0.168,0 0.304,-0.136 0.304,-0.305l0,-4.6c-0.896,0.836 -2.073,1.36 -3.52,1.36c-2.676,0 -4.86,-1.846 -4.86,-4.717c0,-2.885 2.185,-4.717 4.86,-4.717c1.683,0 2.8,0.763 3.52,1.696l0,-13.522c0,-0.25 -0.283,-0.393 -0.484,-0.246l0,0.001zm-18.993,19.642l2.37,0c0.724,0 1.16,-0.383 1.16,-1.04c0,-0.574 -0.4,-1.04 -1.16,-1.04l-2.37,0a0.14,0.14 0 0 0 -0.142,0.142l0,1.794a0.14,0.14 0 0 0 0.142,0.142l0,0.002zm29.18,-0.277l-1.045,-0.542a0.15,0.15 0 0 0 -0.193,0.055c-0.442,0.693 -1.257,1.208 -2.142,1.208c-1.74,0 -3.03,-1.395 -3.03,-3.295c0,-1.928 1.3,-3.295 3.03,-3.295c0.885,0 1.7,0.502 2.142,1.205a0.15,0.15 0 0 0 0.195,0.054l1.037,-0.565c0.08,-0.043 0.107,-0.14 0.058,-0.218c-0.656,-1.033 -1.742,-1.898 -3.432,-1.898c-2.595,0 -4.6,1.9 -4.6,4.717c0,2.803 2.015,4.717 4.6,4.717c1.688,0 2.762,-0.887 3.44,-1.92c0.05,-0.08 0.023,-0.178 -0.06,-0.22l0,-0.003zm5.445,0.72c-1.78,0 -2.914,-1.422 -2.914,-3.295c0.009,-1.895 1.144,-3.295 2.924,-3.295c1.767,0 2.914,1.4 2.914,3.295c0,1.873 -1.147,3.295 -2.914,3.295l-0.01,0zm-1.245,-7.85c-1.958,0.524 -3.25,2.3 -3.25,4.558c0,2.72 1.86,4.717 4.496,4.717c2.246,0 3.94,-1.462 4.383,-3.6c0.72,-3.465 -2.318,-6.57 -5.628,-5.685l-0.001,0.01zm16.68,-0.01l-2,0a0.21,0.21 0 0 0 -0.2,0.137l-2.418,6.258l-2.43,-6.258c-0.033,-0.082 -0.112,-0.137 -0.2,-0.137l-2,0c-0.06,0 -0.107,0.048 -0.107,0.107l0,8.905c0,0.06 0.048,0.107 0.107,0.107l1.384,0c0.06,0 0.107,-0.048 0.107,-0.107l0,-6.934l2.78,6.993c0.012,0.03 0.04,0.048 0.07,0.048l0.578,0c0.03,0 0.06,-0.02 0.07,-0.048l2.767,-6.993l0,6.934c0,0.06 0.048,0.107 0.107,0.107l1.405,0c0.06,0 0.107,-0.048 0.107,-0.107l0,-8.905c0,-0.06 -0.048,-0.107 -0.107,-0.107l-0.02,0zm20.43301,0l-5.913,0c-0.1,0 -0.165,0.074 -0.165,0.165l0,8.8c0,0.1 0.074,0.165 0.165,0.165l5.91199,0c0.10001,0 0.165,-0.074 0.165,-0.165l0,-1.078c0,-0.1 -0.074,-0.165 -0.165,-0.165l-4.312,0c-0.1,0 -0.165,-0.074 -0.165,-0.165l0,-2.214c0,-0.1 0.074,-0.165 0.165,-0.165l4.218,0c0.1,0 0.165,-0.074 0.165,-0.165l0,-1.078c0,-0.1 -0.07401,-0.165 -0.165,-0.165l-4.218,0c-0.1,0 -0.165,-0.074 -0.165,-0.165l0,-2.022c0,-0.1 0.074,-0.165 0.165,-0.165l4.314,0c0.1,0 0.16499,-0.074 0.16499,-0.165l0,-1.078c0,-0.1 -0.074,-0.165 -0.16499,-0.165l-0.001,-0.01zm6.23199,4.307l-2.025,0c-0.1,0 -0.16299,-0.074 -0.16299,-0.163l0,-2.574c0,-0.1 0.073,-0.163 0.16299,-0.163l2.035,0c0.9,0 1.557,0.56 1.557,1.436c0,0.9 -0.656,1.463 -1.557,1.463l-0.01,0.001zm1.255,1.183c1.02,-0.257 1.93999,-1.13 1.93999,-2.633c0,-1.695 -1.188,-2.857 -3,-2.857l-3.82999,0c-0.10001,0 -0.163,0.073 -0.163,0.163l0,8.793c0,0.1 0.073,0.164 0.163,0.164l1.27,0c0.1,0 0.163,-0.074 0.163,-0.164l0,-3.078c0,-0.1 0.073,-0.163 0.16299,-0.163l1.34,0c0.058,0 0.1,0.03 0.14,0.08l1.914,3.245c0.03,0.05 0.083,0.08 0.14,0.08l1.47,0c0.128,0 0.207,-0.14 0.14,-0.25l-1.96,-3.136c-0.06001,-0.096 -0.00401,-0.217 0.106,-0.245l0.00401,0.001zm14.5,-4.082l4.322,0a0.16,0.16 0 0 0 0.16,-0.161l0,-1.077c0,-0.1 -0.072,-0.16 -0.16,-0.16l-5.92,0a0.16,0.16 0 0 0 -0.16,0.16l0,8.798c0,0.1 0.072,0.16 0.16,0.16l5.92,0a0.16,0.16 0 0 0 0.16,-0.161l0,-1.087a0.16,0.16 0 0 0 -0.16,-0.161l-4.31001,0a0.16,0.16 0 0 1 -0.16,-0.16l0,-2.222c0,-0.1 0.072,-0.16 0.16,-0.16l4.22601,0a0.16,0.16 0 0 0 0.161,-0.161l0,-1.096c0,-0.1 -0.072,-0.16 -0.16,-0.16l-4.239,0a0.16,0.16 0 0 1 -0.161,-0.161l0,-2.029a0.16,0.16 0 0 1 0.161,-0.161l0,-0.001zm-3.4,5.695l-1.045,-0.542c-0.067,-0.035 -0.152,-0.01 -0.193,0.055c-0.442,0.693 -1.257,1.208 -2.14201,1.208c-1.74,0 -3.03,-1.395 -3.03,-3.295c0,-1.928 1.3,-3.295 3.03,-3.295c0.885,0 1.7,0.502 2.14201,1.205c0.04,0.066 0.127,0.1 0.195,0.054l1.03699,-0.565c0.08,-0.043 0.107,-0.142 0.05801,-0.218c-0.65601,-1.033 -1.742,-1.898 -3.43201,-1.898c-2.59499,0 -4.6,1.9 -4.6,4.717c0,2.803 2.015,4.717 4.6,4.717c1.688,0 2.762,-0.887 3.44,-1.92a0.15,0.15 0 0 0 -0.06,-0.22l0,-0.003zm-27.21301,-7.103l-2,0a0.21,0.21 0 0 0 -0.2,0.137l-2.418,6.258l-2.43,-6.258c-0.033,-0.082 -0.112,-0.137 -0.2,-0.137l-2,0c-0.06001,0 -0.107,0.048 -0.107,0.107l0,8.905c0,0.06 0.048,0.107 0.107,0.107l1.384,0c0.06001,0 0.107,-0.048 0.107,-0.107l0,-6.934l2.77,6.992c0.012,0.03 0.04,0.048 0.07,0.048l0.578,0c0.03,0 0.06,-0.02 0.07,-0.048l2.767,-6.993l0,6.934c0,0.06 0.048,0.107 0.107,0.107l1.383,0c0.06,0 0.10699,-0.048 0.10699,-0.107l0,-8.905c0,-0.06 -0.048,-0.107 -0.10699,-0.107l0.01199,0.001z"/>
 </g>
</svg>