<svg version="1.2" xmlns="http://www.w3.org/2000/svg" viewBox="0 0 1525 344" width="1525" height="344">
	<title>bc-logo-dark-svg</title>
	<style>
		.s0 { fill: #ffffff } 
	</style>
	<g id="Page-1">
		<g id="Style-Guide---Navigation-Elements">
			<path id="BG---Logo-Main" fill-rule="evenodd" class="s0" d="m465.8 4.2v185.2c-9.6-12.8-25.1-23.2-48.1-23.2-36.5 0-66.4 25-66.4 64.5 0 39.3 29.9 64.6 66.4 64.6 19.8 0 35.9-7.2 48.1-18.6v62.8c0 2.3-1.8 4.2-4.1 4.2h-457.5c-4.1 0-5.7-5.2-2.5-7.6l169.5-124.2v79.2c0 1.1 0.8 1.9 1.9 1.9h65.6c23.9 0 36.3-14.9 36.3-33.8 0-13.3-7.6-24.6-18.2-28.9-1.5-0.7-1.6-2.8-0.1-3.5 9.1-4.2 15.8-13.8 15.8-26.8 0-16.6-12.1-31.8-35.8-31.8h-5.9l228.4-167.4c2.8-2 6.6 0 6.6 3.4zm-268.1 211.7v-22.3c0-1.1 0.8-2 1.9-2h31.3c9 0 14.6 5.4 14.6 13.1 0 8.1-5.6 13.1-14.6 13.1h-31.3c-1.1 0-1.9-0.9-1.9-1.9zm129.1-45.9c0-1-0.8-1.8-1.7-1.8h-23.1c-0.9 0-1.7 0.8-1.7 1.8v121.3c0 1 0.8 1.7 1.7 1.7h23.1c0.9 0 1.7-0.7 1.7-1.7zm122.1 35.1l16.9-9.3v28.2h-52.5c-1.1 0-2.1 1-2.1 2.1v19c0 1.2 1 2.1 2.1 2.1h29.3c0.8 0 1.5 0.7 1.5 1.5v12.8c0 0.4-0.2 0.9-0.6 1.2-5.2 4.5-15.1 9-25.8 9-22.7 0-39.2-17.4-39.2-41 0-23.5 16.5-40.9 39.2-40.9 12.3 0 22.5 6.6 28.5 14.7 0.6 0.8 1.8 1.1 2.7 0.6zm-251.2 62.6v-24.5c0-1.1 0.8-2 1.9-2h32.4c10.3 0 15.9 6.4 15.9 14.2 0 9-6 14.3-15.9 14.3h-32.4c-1.1 0-1.9-0.9-1.9-2zm401.7 1.2c-9.2 14.2-23.9 26.3-47 26.3-35.5 0-63-26.2-63-64.6 0-38.5 27.5-64.5 63-64.5 23.1 0 38 11.8 46.9 26 0.7 1 0.3 2.4-0.8 2.9l-14.1 7.8c-1 0.5-2.2 0.1-2.7-0.8-6.1-9.6-17.2-16.4-29.3-16.4-23.8 0-41.4 18.7-41.4 45 0 26.1 17.6 45.1 41.4 45.1 12.1 0 23.3-7 29.3-16.5 0.6-0.9 1.7-1.2 2.6-0.7l14.3 7.4c1.1 0.6 1.5 1.9 0.8 3zm133.5-22.8c-6 29.1-29.2 49.1-59.9 49.1-36 0-61.4-27.3-61.4-64.6 0-31 17.6-55.2 44.4-62.3 45.3-12.1 86.8 30.4 76.9 77.8zm-20-15.5c0-24.9-17.8-45-39.9-45-22 0-39.8 20.1-39.8 45 0 25 17.8 45.1 39.8 45.1 22.1 0 39.9-20.1 39.9-45.1zm172.6-61v121.9c0 0.8-0.7 1.5-1.5 1.5h-18.9c-0.8 0-1.5-0.7-1.5-1.5v-94.9l-37.8 95.7c-0.1 0.4-0.5 0.7-1 0.7h-7.9c-0.4 0-0.8-0.3-0.9-0.7l-38-95.7v94.9c0 0.8-0.7 1.5-1.5 1.5h-18.9c-0.8 0-1.5-0.7-1.5-1.5v-121.9c0-0.8 0.7-1.4 1.5-1.4h27.3c1.2 0 2.3 0.7 2.8 1.8l33.2 85.7 33-85.7c0.5-1.1 1.6-1.8 2.8-1.8h27.3c0.8 0 1.5 0.6 1.5 1.4zm280.1 0.8v14.8c0 1.2-1 2.2-2.3 2.2h-58.9c-1.3 0-2.3 1-2.3 2.3v27.7c0 1.2 1 2.2 2.3 2.2h57.6c1.3 0 2.3 1 2.3 2.3v14.7c0 1.3-1 2.3-2.3 2.3h-57.6c-1.3 0-2.3 1-2.3 2.2v30.3c0 1.3 1 2.3 2.3 2.3h58.9c1.3 0 2.3 1 2.3 2.2v14.8c0 1.3-1 2.3-2.3 2.3h-80.8c-1.2 0-2.2-1-2.2-2.3v-120.3c0-1.2 1-2.2 2.2-2.2h80.8c1.3 0 2.3 1 2.3 2.2zm98.6 76.2c5.2 8.4 21 33.7 26.8 43 0.9 1.4-0.1 3.4-1.9 3.4h-20.1c-0.8 0-1.5-0.5-1.9-1.1l-26.2-44.4c-0.4-0.7-1.1-1.1-1.9-1.1h-18.3c-1.2 0-2.2 1-2.2 2.2v42.1c0 1.3-1 2.3-2.3 2.3h-17.4c-1.2 0-2.2-1-2.2-2.3v-120.3c0-1.2 1-2.2 2.2-2.2h52.5c24.7 0 40.9 15.9 40.9 39.1 0 20.5-12.6 32.5-26.5 36-1.6 0.4-2.3 2-1.5 3.3zm5.6-39.5c0-12-9-19.7-21.3-19.7h-27.8c-1.2 0-2.2 1-2.2 2.3v35.2c0 1.2 1 2.2 2.2 2.2h27.8c12.3 0 21.3-7.9 21.3-20zm191.7-17.5v27.8c0 1.2 1 2.2 2.2 2.2h57.8c1.2 0 2.2 1 2.2 2.2v14.9c0 1.2-1 2.2-2.2 2.2h-57.8c-1.2 0-2.2 1-2.2 2.2v30.4c0 1.2 1 2.2 2.2 2.2h59.1c1.2 0 2.2 1 2.2 2.2v14.9c0 1.2-1 2.2-2.2 2.2h-80.9c-1.2 0-2.2-1-2.2-2.2v-120.4c0-1.3 1-2.2 2.2-2.2h80.9c1.2 0 2.2 0.9 2.2 2.2v14.8c0 1.2-1 2.2-2.2 2.2h-59.1c-1.2 0-2.2 1-2.2 2.2zm-43.3 78.8c-9.2 14.1-23.9 26.3-47 26.3-35.5 0-63-26.2-63-64.6 0-38.5 27.5-64.5 63-64.5 23.1 0 37.9 11.8 46.9 25.9 0.7 1.1 0.3 2.4-0.8 3l-14.2 7.8c-0.9 0.5-2.1 0.1-2.6-0.8-6.1-9.6-17.2-16.5-29.3-16.5-23.8 0-41.4 18.7-41.4 45.1 0 26 17.6 45.1 41.4 45.1 12.1 0 23.2-7 29.3-16.5 0.5-0.9 1.7-1.2 2.6-0.8l14.3 7.5c1.1 0.6 1.5 1.9 0.8 3zm-371.5-98.8v121.9c0 0.8-0.6 1.5-1.4 1.5h-18.9c-0.8 0-1.5-0.7-1.5-1.5v-94.9l-37.8 95.7c-0.2 0.4-0.6 0.7-1 0.7h-7.9c-0.4 0-0.8-0.3-1-0.7l-38-95.7v94.9c0 0.8-0.6 1.5-1.4 1.5h-19c-0.8 0-1.4-0.7-1.4-1.5v-121.9c0-0.8 0.6-1.4 1.4-1.4h27.4c1.2 0 2.3 0.7 2.7 1.8l33.3 85.7 33-85.7c0.4-1.1 1.5-1.8 2.8-1.8h27.3c0.8 0 1.4 0.6 1.4 1.4z"/>
		</g>
	</g>
</svg>