<svg width="192" height="61" xmlns="http://www.w3.org/2000/svg" xml:space="preserve" version="1.0">

 <g>
  <title>Layer 1</title>
  <path id="svg_1" fill="#242E3A" d="m57.7,36.1l1.10001,-1.6c1.2,1.3 2.8,2 4.6,2c2.1,0 3.3,-1 3.3,-2.4c0,-3.4 -8.6,-1.3 -8.6,-6.4c0,-2.2 1.9,-4 5.2,-4c1.89999,-0.1 3.8,0.7 5.1,2l-1,1.5c-1.1,-1.2 -2.6,-1.8 -4.2,-1.8c-1.89999,0 -3.1,1 -3.1,2.2c0,3.1 8.6,1 8.6,6.4c0,2.3 -1.8,4.2 -5.5,4.2c-2,0.2 -4.1,-0.6 -5.5,-2.1z" class="st0"/>
  <path id="svg_2" fill="#242E3A" d="m81.7,38l0,-9.2c0,-2.5 -1.2,-3.2 -3.2,-3.2c-1.6,0.1 -3.1,0.9 -4.1,2.2l0,10.2l-2.2,0l0,-19.2l2.2,0l0,7.3c1.3,-1.4 3.1,-2.3 5,-2.3c2.9,0 4.5,1.39999 4.5,4.39999l0,9.8l-2.2,0l0,0z" class="st0"/>
  <path id="svg_3" fill="#242E3A" d="m87.7,20.6c0,-0.8 0.60001,-1.4 1.4,-1.4c0.8,0 1.4,0.60001 1.4,1.4c0,0.8 -0.6,1.4 -1.4,1.4s-1.4,-0.6 -1.4,-1.4c0,0 0,0 0,0zm0.5,17.4l0,-13.9l2.2,0l0,13.9l-2.2,0z" class="st0"/>
  <path id="svg_4" fill="#242E3A" d="m96.8,35.8l0,7.39999l-2.2,0l0,-19.1l2.2,0l0,2c1.1,-1.5 2.89999,-2.4 4.7,-2.4c3.60001,0 6.2,2.7 6.2,7.3s-2.5,7.3 -6.2,7.3c-1.9,0 -3.6,-0.9 -4.7,-2.5zm8.59999,-4.8c0,-3.1 -1.60001,-5.3 -4.50001,-5.3c-1.7,0 -3.2,0.8 -4.2,2.2l0,6.3c0.9,1.4 2.5,2.2 4.2,2.3c2.80001,-0.1 4.50001,-2.4 4.50001,-5.5z" class="st0"/>
  <path id="svg_5" fill="#242E3A" d="m121.2,29.9c0,-1.7 -0.89999,-2.3 -2.3,-2.3c-1.09999,0 -2,0.5 -2.7,1.4l0,9l-4.5,0l0,-19.2l4.5,0l0,6.89999c1.2,-1.3 3,-2.1 4.8,-2c3.2,0 4.60001,1.8 4.60001,4.3l0,9.9l-4.5,0l0.09999,-8l0,0z" class="st0"/>
  <path id="svg_6" fill="#242E3A" d="m135.3,23.7c4.09999,0 7.09999,3 7.09999,7.7l0,1l-9.89999,0c0.3,1.3 1.39999,2.5 3.60001,2.5c1.2,0 2.39999,-0.4 3.39999,-1.2l1.89999,2.7c-1.7,1.3 -3.7,1.9 -5.79999,1.8c-4.3,0 -7.60001,-2.8 -7.60001,-7.3c-0.10001,-4 3.10001,-7.2 7,-7.3c0.10001,0.1 0.2,0.1 0.3,0.1zm-2.8,5.8l5.8,0c-0.2,-1.4 -1.40001,-2.5 -2.90001,-2.4c-1.5,-0.1 -2.7,1 -2.89999,2.4z" class="st0"/>
  <path id="svg_7" fill="#242E3A" d="m144.60001,24.1l4.5,0l0,1.8c1.10001,-1.3 2.60001,-2 4.3,-2.1l0,4.2c-0.39999,-0.1 -0.7,-0.1 -1.10001,-0.1c-1.2,0 -2.39999,0.4 -3.29999,1.3l0,8.8l-4.40001,0l0,-13.9z" class="st0"/>
  <path id="svg_8" fill="#242E3A" d="m154.5,31c0,-3.9 2.89999,-7.3 7.60001,-7.3s7.59999,3.3 7.59999,7.3c-0.2,4.2 -3.7,7.5 -7.89999,7.3c-4,-0.10001 -7.2,-3.3 -7.3,-7.3zm10.60001,0c0.10001,-1.7 -1.09999,-3.2 -2.8,-3.3s-3.2,1.10001 -3.29999,2.8c0,0.2 0,0.3 0,0.5c0,1.8 1.09999,3.4 3,3.4s3.09999,-1.6 3.09999,-3.4l0,0z" class="st0"/>
  <path id="svg_9" fill="#242E3A" d="m175.8,19.9l-1.40001,0l0,-1.1l4,0l0,1.1l-1.39999,0l0,3.8l-1.3,0l0.10001,-3.8z" class="st0"/>
  <path id="svg_10" fill="#242E3A" d="m183.39999,20.4l-1.2,3.4l-0.60001,0l-1.2,-3.4l0,3.4l-1.3,0l0,-4.9l1.8,0l1,2.8l1,-2.8l1.8,0l0,4.9l-1.3,0l0,-3.4l0,0z" class="st0"/>
  <path id="svg_11" fill="#F05353" d="m30.3,4.6l-1.4,0l-18.6,11.1c-1,0.60001 -2,1.4 -3,2.10001l0,25.39999c5.8,3.60001 11.7,7.10001 17.5,10.7c1.4,0.8 2.7,1.7 4,2.5l1.4,0c7.2,-4.3 14.5,-8.6 21.5,-12.8l0,-26.2l-21.4,-12.8z" class="st1"/>
  <path id="svg_12" fill="#FFFFFF" d="m46.1,28.4l0,-7.7c-5,-2.89999 -10.2,-6 -15.6,-8.89999c-0.8,-0.4 -2.3,0.1 -3.1,0.7c-3.9,2.1 -7.7,4.4 -11.5,6.7c-4,2.4 -4,5.5 0,7.8c2.3,1.4 4.7,2.7 7,4c0,0 6.6,3.8 9.8,5.7c0.8,0.5 1.6,1.10001 2.3,1.8c-2,1.2 -3.6,2.2 -5.5,3.3c-5.5,-3.2 -10.8,-6.2 -16.5,-9.5l0,7.7c5,2.9 10.2,6 15.6,8.9c0.8,0.4 2.3,-0.1 3.2,-0.7c3.9,-2.1 7.7,-4.39999 11.5,-6.7c4,-2.4 4,-5.5 0,-7.8c-2.3,-1.39999 -7.1,-4 -7.1,-4c-3.2,-1.89999 -6.4,-3.8 -9.7,-5.7c-0.8,-0.5 -1.6,-1.1 -2.3,-1.8c2,-1.2 3.6,-2.2 5.5,-3.39999c5.3,3.3 10.6,6.39999 16.4,9.6z" class="st2"/>
  <rect id="svg_13" fill="none" height="61" width="192" class="st3" y="0" x="0"/>
 </g>
</svg>