<?xml version="1.0" encoding="UTF-8"?>
<!-- Generator: Adobe Illustrator 27.8.1, SVG Export Plug-In . SVG Version: 6.00 Build 0)  -->
<svg xmlns="http://www.w3.org/2000/svg" xmlns:xlink="http://www.w3.org/1999/xlink" version="1.1" id="Layer_1" x="0px" y="0px" viewBox="0 0 111.2 34.6" style="enable-background:new 0 0 111.2 34.6;" xml:space="preserve">
<style type="text/css">
	.st0{fill-rule:evenodd;clip-rule:evenodd;fill:#EF5252;}
	.st1{fill-rule:evenodd;clip-rule:evenodd;fill:#FEFEFE;}
</style>
<g>
	<g>
		<g>
			<path class="st0" d="M15,34.6c-0.3,0-0.6-0.1-0.8-0.2L0.8,26.5C0.3,26.2,0,25.7,0,25.1V9.5c0-0.3,0.1-0.6,0.2-0.8l0,0l0,0     C0.4,8.4,0.6,8.2,0.8,8l13.4-7.8c0.5-0.3,1.1-0.3,1.6,0L29.3,8c0.3,0.2,0.5,0.4,0.6,0.6l0,0c0.1,0.2,0.2,0.5,0.2,0.8V25     c0,0.6-0.3,1.1-0.8,1.4l-13.4,7.8C15.6,34.5,15.3,34.6,15,34.6z"></path>
			<path class="st1" d="M3.8,12.8c0,0.5,0.4,1.2,0.8,1.4l13.7,8c0.4,0.3,0.4,0.7,0,0.9l-2.5,1.5c-0.4,0.3-1.2,0.3-1.6,0L4.6,19     c-0.4-0.3-0.8,0-0.8,0.5v3.3c0,0.5,0.4,1.2,0.8,1.4l9.6,5.6c0.4,0.3,1.2,0.3,1.6,0l9.6-5.6c0.4-0.3,0.8-0.9,0.8-1.4v-1.1     c0-0.5-0.4-1.2-0.8-1.4l-13.7-8c-0.4-0.3-0.4-0.7,0-0.9l2.5-1.5c0.4-0.3,1.2-0.3,1.6,0l9.6,5.6c0.4,0.3,0.8,0,0.8-0.5v-3.3     c0-0.5-0.4-1.2-0.8-1.4l-9.6-5.6c-0.4-0.3-1.2-0.3-1.6,0l-9.6,5.6c-0.4,0.3-0.8,0.9-0.8,1.4C3.8,11.7,3.8,12.8,3.8,12.8z"></path>
			<path class="st1" d="M39.5,22.8c-1.6,0-2.9-0.5-3.9-1.5l0.8-1.1c0.6,0.7,1.8,1.4,3.1,1.4c1.5,0,2.3-0.7,2.3-1.6     c0-2.3-5.9-0.9-5.9-4.4c0-1.5,1.3-2.7,3.5-2.7c1.6,0,2.8,0.6,3.5,1.4l-0.7,1c-0.6-0.7-1.6-1.2-2.8-1.2c-1.3,0-2.1,0.7-2.1,1.5     c0,2.1,5.9,0.7,5.9,4.4C43.3,21.5,42,22.8,39.5,22.8z M53.6,22.6h-1.5v-6.3c0-1.7-0.9-2.2-2.2-2.2c-1.1,0-2.3,0.7-2.8,1.5v7h-1.5     V9.4h1.5v5c0.7-0.8,2-1.6,3.4-1.6c2,0,3,1,3,3L53.6,22.6L53.6,22.6z M57.4,11.7c-0.6,0-1-0.4-1-1s0.5-1,1-1c0.6,0,1,0.5,1,1     S57.9,11.7,57.4,11.7z M58.1,22.6h-1.5V13h1.5V22.6z M65.8,22.8c-1.3,0-2.4-0.6-3.2-1.7v5.1H61V13h1.5v1.4c0.7-1,1.9-1.7,3.2-1.7     c2.5,0,4.3,1.9,4.3,5C70,20.9,68.3,22.8,65.8,22.8z M65.4,21.5c1.9,0,3.1-1.6,3.1-3.7s-1.1-3.7-3.1-3.7c-1.2,0-2.3,0.7-2.8,1.5     v4.3C63,20.8,64.2,21.5,65.4,21.5z M81.4,22.6h-2.5v-5.8c0-1.3-0.7-1.7-1.8-1.7c-1,0-1.8,0.6-2.2,1.1v6.4h-2.5V9.4H75v4.9     c0.6-0.7,1.8-1.5,3.3-1.5c2.1,0,3.1,1.1,3.1,3V22.6z M88.4,22.8c-2.9,0-5.1-2-5.1-5c0-2.8,2.1-5,4.9-5c2.9,0,4.8,2.1,4.8,5.2v0.6     h-7c0.2,1.2,1.1,2.1,2.7,2.1c0.8,0,1.9-0.3,2.5-0.9l1.1,1.7C91.4,22.4,89.9,22.8,88.4,22.8z M90.7,16.9c-0.1-0.9-0.7-2-2.4-2     c-1.6,0-2.2,1.1-2.3,2H90.7z M97.5,22.6H95V13h2.5v1.3c0.7-0.8,1.9-1.5,3-1.5v2.5c-0.2,0-0.4-0.1-0.7-0.1c-0.8,0-1.9,0.5-2.4,1.1     L97.5,22.6L97.5,22.6z M106.1,22.8c-3.1,0-5-2.3-5-5s1.9-5,5-5c3.2,0,5.1,2.3,5.1,5S109.2,22.8,106.1,22.8z M106.1,20.6     c1.6,0,2.5-1.3,2.5-2.8s-0.9-2.8-2.5-2.8s-2.4,1.3-2.4,2.8C103.6,19.3,104.5,20.6,106.1,20.6z"></path>
		</g>
	</g>
</g>
</svg>
