<?xml version="1.0" encoding="UTF-8"?>
<!DOCTYPE svg PUBLIC "-//W3C//DTD SVG 1.1//EN" "http://www.w3.org/Graphics/SVG/1.1/DTD/svg11.dtd">
<svg xmlns="http://www.w3.org/2000/svg" version="1.1" width="1470px" height="918px" style="shape-rendering:geometricPrecision; text-rendering:geometricPrecision; image-rendering:optimizeQuality; fill-rule:evenodd; clip-rule:evenodd" xmlns:xlink="http://www.w3.org/1999/xlink">
<g><path style="opacity:0.999" fill="#9a5c8e" d="M 202.5,142.5 C 374.5,142.333 546.5,142.5 718.5,143C 743.996,148.496 759.496,163.996 765,189.5C 765.667,259.167 765.667,328.833 765,398.5C 759.59,423.576 744.423,439.076 719.5,445C 656.855,446.137 594.188,446.97 531.5,447.5C 540.046,466.868 547.713,486.202 554.5,505.5C 519.5,486 484.5,466.5 449.5,447C 369.5,446.667 289.5,446.333 209.5,446C 179.937,442.771 162.104,426.604 156,397.5C 155.333,328.5 155.333,259.5 156,190.5C 161.233,164.435 176.733,148.435 202.5,142.5 Z"/></g>
<g><path style="opacity:1" fill="#fefefe" d="M 413.5,175.5 C 433.743,176.564 441.577,186.897 437,206.5C 430.822,217.846 426.156,229.846 423,242.5C 409.935,294.353 403.935,347.02 405,400.5C 402.56,412.965 395.06,418.465 382.5,417C 377.698,415.099 373.364,412.432 369.5,409C 353.266,391.365 340.433,371.532 331,349.5C 324.967,334.075 319.3,318.408 314,302.5C 300.124,328.919 286.791,355.586 274,382.5C 269.075,391.353 263.409,399.686 257,407.5C 244.53,421.628 233.863,420.628 225,404.5C 214.982,376.097 206.982,347.097 201,317.5C 194.175,280.904 187.675,244.237 181.5,207.5C 183.75,191.194 193.083,184.36 209.5,187C 215.501,188.336 219.668,191.836 222,197.5C 226.223,222.506 230.557,247.506 235,272.5C 238.777,293.721 243.444,314.721 249,335.5C 267.667,300.167 286.333,264.833 305,229.5C 312.031,217.931 321.531,215.098 333.5,221C 336.433,223.264 338.6,226.098 340,229.5C 346.174,261.532 354.841,292.865 366,323.5C 369.17,289.649 375.17,256.316 384,223.5C 387.827,210.686 392.827,198.352 399,186.5C 402.321,180.66 407.154,176.993 413.5,175.5 Z"/></g>
<g><path style="opacity:1" fill="#fefefe" d="M 506.5,202.5 C 543.544,202.37 566.378,220.37 575,256.5C 582.328,296.656 573.995,332.99 550,365.5C 523.932,393.653 494.432,397.819 461.5,378C 446.197,363.454 437.363,345.62 435,324.5C 431.068,283.291 443.235,247.791 471.5,218C 481.794,209.515 493.46,204.349 506.5,202.5 Z"/></g>
<g><path style="opacity:1" fill="#fefefe" d="M 662.5,202.5 C 700.867,202.937 724.033,221.937 732,259.5C 738.074,298.128 729.741,333.128 707,364.5C 685.941,389.296 660.108,396.13 629.5,385C 610.982,375.137 599.148,359.971 594,339.5C 584.914,295.176 594.914,255.843 624,221.5C 634.855,210.988 647.689,204.655 662.5,202.5 Z"/></g>
<g><path style="opacity:1" fill="#9b5d8f" d="M 508.5,244.5 C 515.797,243.707 521.797,246.04 526.5,251.5C 532.532,261.486 535.866,272.32 536.5,284C 536.031,299.375 532.198,313.875 525,327.5C 519.073,338.441 510.073,345.108 498,347.5C 494.093,346.964 490.593,345.464 487.5,343C 477.368,327.68 473.868,310.846 477,292.5C 479.544,279.083 485.044,267.083 493.5,256.5C 497.942,251.716 502.942,247.716 508.5,244.5 Z"/></g>
<g><path style="opacity:1" fill="#9b5d8f" d="M 665.5,244.5 C 670.548,244.127 675.215,245.294 679.5,248C 686.741,255.703 690.907,264.87 692,275.5C 693.756,296.141 689.09,315.141 678,332.5C 672.781,339.735 665.947,344.568 657.5,347C 654.833,347.667 652.167,347.667 649.5,347C 641.822,341.828 636.989,334.661 635,325.5C 628.486,295.74 635.986,270.24 657.5,249C 660.354,247.603 663.02,246.103 665.5,244.5 Z"/></g>
<g><path style="opacity:0.99" fill="#010001" d="M 228.5,582.5 C 238.506,582.334 248.506,582.5 258.5,583C 262.577,583.515 266.577,584.349 270.5,585.5C 271.499,599.15 271.833,612.817 271.5,626.5C 263.109,624.574 254.609,623.241 246,622.5C 228.406,623.772 216.073,632.438 209,648.5C 202.268,667.109 203.601,685.109 213,702.5C 221.626,714.314 233.293,720.314 248,720.5C 255.853,719.497 263.687,718.164 271.5,716.5C 271.5,730.167 271.5,743.833 271.5,757.5C 239.123,766.324 209.789,760.491 183.5,740C 160.576,716.525 151.41,688.359 156,655.5C 163.652,614.681 187.819,590.348 228.5,582.5 Z"/></g>
<g><path style="opacity:0.989" fill="#000000" d="M 349.5,581.5 C 398.756,582.254 425.256,607.254 429,656.5C 431.97,683.024 427.303,708.024 415,731.5C 397.809,754.832 374.642,764.666 345.5,761C 310.781,755.952 289.948,736.119 283,701.5C 277.955,675.835 279.289,650.502 287,625.5C 298.897,598.098 319.731,583.431 349.5,581.5 Z M 348.5,621.5 C 362.712,619.853 371.878,625.853 376,639.5C 380.627,661.155 380.627,682.822 376,704.5C 371.173,718.669 361.34,724.169 346.5,721C 340.333,718.833 336.167,714.667 334,708.5C 330.602,696.582 329.102,684.416 329.5,672C 328.621,657.508 331.121,643.674 337,630.5C 340.183,626.462 344.016,623.462 348.5,621.5 Z"/></g>
<g><path style="opacity:0.99" fill="#010001" d="M 1159.5,582.5 C 1173.27,581.914 1186.94,582.747 1200.5,585C 1201,585.5 1201.5,586 1202,586.5C 1202.67,599.5 1202.67,612.5 1202,625.5C 1201.59,625.957 1201.09,626.291 1200.5,626.5C 1188.26,622.563 1175.93,622.063 1163.5,625C 1151.63,629.871 1143.46,638.371 1139,650.5C 1133.92,666.417 1134.59,682.084 1141,697.5C 1149.37,712.193 1162.04,719.86 1179,720.5C 1186.08,719.819 1193.08,718.485 1200,716.5C 1200.77,716.645 1201.44,716.978 1202,717.5C 1202.67,730.5 1202.67,743.5 1202,756.5C 1170.51,766.136 1141.68,760.969 1115.5,741C 1091.61,717.323 1082.11,688.823 1087,655.5C 1094.65,614.685 1118.82,590.352 1159.5,582.5 Z"/></g>
<g><path style="opacity:0.984" fill="#000000" d="M 454.5,586.5 C 474.076,586.174 493.576,586.507 513,587.5C 519.808,617.733 526.142,648.066 532,678.5C 537.872,647.682 544.372,617.016 551.5,586.5C 571.743,586.173 591.909,586.507 612,587.5C 619.922,644.122 627.422,700.789 634.5,757.5C 619.167,757.5 603.833,757.5 588.5,757.5C 584.924,719.814 581.091,682.148 577,644.5C 567.37,681.688 558.036,719.021 549,756.5C 543.746,757.155 538.412,757.488 533,757.5C 527.42,757.473 522.086,756.806 517,755.5C 507.788,718.315 498.121,681.315 488,644.5C 484.298,682.191 480.464,719.857 476.5,757.5C 461.833,757.5 447.167,757.5 432.5,757.5C 439.589,700.454 446.922,643.454 454.5,586.5 Z"/></g>
<g><path style="opacity:0.984" fill="#000000" d="M 661.5,586.5 C 681.167,586.5 700.833,586.5 720.5,586.5C 726.833,616.499 733.167,646.499 739.5,676.5C 745.536,646.358 752.202,616.358 759.5,586.5C 779.5,586.5 799.5,586.5 819.5,586.5C 827.074,643.517 834.741,700.517 842.5,757.5C 827.152,757.833 811.819,757.499 796.5,756.5C 792.226,718.867 788.059,681.201 784,643.5C 774.988,681.214 765.821,718.881 756.5,756.5C 745.854,757.499 735.187,757.832 724.5,757.5C 715.319,719.441 705.819,681.441 696,643.5C 691.836,681.472 688.003,719.472 684.5,757.5C 669.833,757.5 655.167,757.5 640.5,757.5C 647.418,700.491 654.418,643.491 661.5,586.5 Z"/></g>
<g><path style="opacity:0.978" fill="#000000" d="M 854.5,586.5 C 885.502,586.333 916.502,586.5 947.5,587C 948.488,599.086 948.822,611.253 948.5,623.5C 932.833,623.5 917.167,623.5 901.5,623.5C 901.5,633.833 901.5,644.167 901.5,654.5C 915.167,654.5 928.833,654.5 942.5,654.5C 942.821,666.414 942.488,678.247 941.5,690C 928.171,690.5 914.837,690.667 901.5,690.5C 901.5,700.5 901.5,710.5 901.5,720.5C 917.167,720.5 932.833,720.5 948.5,720.5C 948.5,732.833 948.5,745.167 948.5,757.5C 917.167,757.5 885.833,757.5 854.5,757.5C 854.5,700.5 854.5,643.5 854.5,586.5 Z"/></g>
<g><path style="opacity:0.985" fill="#010001" d="M 960.5,586.5 C 981.836,586.333 1003.17,586.5 1024.5,587C 1045.74,587.543 1063.24,595.71 1077,611.5C 1091.73,640.777 1085.23,663.943 1057.5,681C 1069.63,706.091 1081.63,731.257 1093.5,756.5C 1077.17,757.833 1060.83,757.833 1044.5,756.5C 1032.06,731.288 1019.89,705.955 1008,680.5C 1007.5,706.165 1007.33,731.831 1007.5,757.5C 991.922,757.824 976.422,757.491 961,756.5C 960.5,699.834 960.333,643.168 960.5,586.5 Z M 1007.5,620.5 C 1015.26,620.018 1022.59,621.518 1029.5,625C 1036.09,631.106 1038.26,638.606 1036,647.5C 1033.1,653.545 1028.27,657.045 1021.5,658C 1016.9,659.122 1012.23,659.622 1007.5,659.5C 1007.5,646.5 1007.5,633.5 1007.5,620.5 Z"/></g>
<g><path style="opacity:0.987" fill="#000000" d="M 1214.5,586.5 C 1245.5,586.5 1276.5,586.5 1307.5,586.5C 1307.5,598.833 1307.5,611.167 1307.5,623.5C 1291.83,623.5 1276.17,623.5 1260.5,623.5C 1260.5,633.5 1260.5,643.5 1260.5,653.5C 1273.84,653.333 1287.17,653.5 1300.5,654C 1301.49,665.753 1301.82,677.586 1301.5,689.5C 1287.83,689.5 1274.17,689.5 1260.5,689.5C 1260.5,699.833 1260.5,710.167 1260.5,720.5C 1276.17,720.5 1291.83,720.5 1307.5,720.5C 1307.5,732.833 1307.5,745.167 1307.5,757.5C 1276.5,757.5 1245.5,757.5 1214.5,757.5C 1214.5,700.5 1214.5,643.5 1214.5,586.5 Z"/></g>
</svg>
